<?xml version="1.0" encoding="utf-8"?>
<!-- Generator: Adobe Illustrator 16.0.0, SVG Export Plug-In . SVG Version: 6.00 Build 0)  -->
<!DOCTYPE svg PUBLIC "-//W3C//DTD SVG 1.1//EN" "http://www.w3.org/Graphics/SVG/1.1/DTD/svg11.dtd">
<svg version="1.1" id="Layer_1" xmlns="http://www.w3.org/2000/svg" xmlns:xlink="http://www.w3.org/1999/xlink" x="0px" y="0px"
	 width="175px" height="51px" viewBox="0 0 175 51" enable-background="new 0 0 175 51" xml:space="preserve">
<g>
	<path fill-rule="evenodd" clip-rule="evenodd" d="M132.479,11.874c0.79,0,1.544,0,2.378,0c0,2.125,0,4.242,0,6.472
		c1.159-0.673,2.321-0.619,3.482-0.557c2.685,0.143,4.032,1.315,4.181,3.989c0.13,2.335,0.094,4.691-0.049,7.027
		c-0.133,2.176-1.416,3.435-3.605,3.564c-2.105,0.125-4.225,0.027-6.387,0.027C132.479,25.624,132.479,18.778,132.479,11.874z
		 M134.873,30.271c1.251,0,2.432,0.063,3.603-0.02c1.058-0.075,1.603-0.729,1.612-1.798c0.02-2.236,0.02-4.473-0.004-6.709
		c-0.01-1.029-0.535-1.618-1.545-1.741c-0.643-0.079-1.303-0.103-1.948-0.057c-1.144,0.082-1.714,0.753-1.716,1.923
		c-0.004,1.937,0,3.875-0.002,5.812C134.873,28.523,134.873,29.367,134.873,30.271z"/>
	<path fill-rule="evenodd" clip-rule="evenodd" d="M62.934,37.461c0-6.582,0-13.1,0-19.66c0.75,0,1.479,0,2.25,0
		c0.025,0.176,0.051,0.36,0.084,0.603c1.393-0.853,2.891-0.746,4.372-0.509c2.206,0.354,3.323,1.603,3.389,3.846
		c0.065,2.236,0.068,4.478,0.002,6.715c-0.076,2.55-1.587,3.888-4.415,4.017c-0.862,0.04-1.727,0.014-2.591,0.017
		c-0.19,0.001-0.38,0-0.635,0c0,1.682,0,3.312,0,4.972C64.54,37.461,63.756,37.461,62.934,37.461z M65.423,30.283
		c1.185,0,2.314,0.043,3.438-0.013c1.065-0.053,1.707-0.661,1.728-1.706c0.047-2.291,0.045-4.584,0.002-6.876
		c-0.019-1.024-0.578-1.58-1.612-1.693c-0.678-0.074-1.376-0.089-2.054-0.02c-1,0.102-1.53,0.742-1.533,1.75
		c-0.007,2.715-0.003,5.432-0.001,8.147C65.39,29.992,65.409,30.113,65.423,30.283z"/>
	<path fill-rule="evenodd" clip-rule="evenodd" d="M100.689,37.459c-0.864,0-1.631,0-2.439,0c-0.011-0.221-0.026-0.408-0.026-0.598
		c-0.001-6.15,0.007-12.302-0.015-18.452c-0.002-0.557,0.17-0.702,0.687-0.661c0.521,0.041,1.049,0.009,1.599,0.009
		c0.029,0.226,0.052,0.394,0.084,0.645c1.175-0.77,2.459-0.695,3.732-0.593c0.556,0.044,1.121,0.16,1.646,0.342
		c1.516,0.522,2.212,1.713,2.32,3.224c0.105,1.456,0.083,2.922,0.089,4.384c0.004,0.986,0.003,1.975-0.071,2.958
		c-0.16,2.131-1.411,3.436-3.543,3.658c-1.048,0.109-2.109,0.083-3.166,0.113c-0.279,0.008-0.557,0.001-0.896,0.001
		C100.689,34.158,100.689,35.787,100.689,37.459z M100.701,30.262c1.226,0,2.422,0.068,3.607-0.02
		c1.004-0.076,1.561-0.725,1.568-1.672c0.02-2.307,0.02-4.614-0.002-6.92c-0.007-0.892-0.541-1.508-1.428-1.631
		c-0.658-0.091-1.336-0.113-2-0.079c-1.184,0.062-1.771,0.728-1.773,1.917c0,2.624,0,5.249,0.002,7.872
		C100.676,29.9,100.691,30.071,100.701,30.262z"/>
	<path fill-rule="evenodd" clip-rule="evenodd" d="M123.7,32.475c-0.556,0.133-0.674-0.151-0.79-0.528
		c-1.381-4.509-2.777-9.014-4.168-13.52c-0.057-0.184-0.108-0.368-0.193-0.657c0.863,0,1.678-0.016,2.49,0.02
		c0.102,0.005,0.234,0.27,0.281,0.434c1.026,3.624,2.041,7.25,3.061,10.876c0.065,0.229,0.143,0.453,0.31,0.67
		c0.468-1.982,0.937-3.964,1.405-5.946c0.442-1.866,0.896-3.73,1.318-5.602c0.084-0.369,0.237-0.485,0.602-0.472
		c0.647,0.026,1.296,0.008,2.018,0.008c-0.096,0.382-0.166,0.685-0.244,0.984c-1.344,5.052-2.678,10.106-4.037,15.152
		c-0.189,0.71-0.467,1.401-0.757,2.078c-0.44,1.033-1.253,1.612-2.375,1.655c-0.696,0.026-1.395-0.059-2.107-0.093
		c0-0.765,0-1.429,0-2.146c0.413,0.03,0.808,0.071,1.202,0.083c0.732,0.023,1.067-0.179,1.326-0.878
		C123.283,33.936,123.461,33.254,123.7,32.475z"/>
	<path fill-rule="evenodd" clip-rule="evenodd" d="M94.75,25.123c0,1.251,0.072,2.506-0.016,3.75
		c-0.135,1.857-1.194,3.008-3.006,3.41c-1.324,0.295-2.664,0.309-3.99,0.037c-2.053-0.422-3.155-1.649-3.22-3.74
		c-0.071-2.308-0.076-4.621,0.002-6.929c0.075-2.231,1.303-3.524,3.641-3.792c1.157-0.133,2.37-0.087,3.522,0.1
		c1.838,0.298,2.868,1.548,3.068,3.412c0.025,0.245,0.07,0.49,0.072,0.736c0.008,1.005,0.004,2.01,0.004,3.015
		C94.801,25.123,94.776,25.123,94.75,25.123z M92.346,25.139c-0.002,0-0.003,0-0.004,0c0-1.146,0.016-2.292-0.006-3.438
		c-0.018-0.955-0.54-1.585-1.488-1.687c-0.764-0.082-1.549-0.086-2.313-0.013c-1.018,0.098-1.579,0.698-1.594,1.71
		c-0.033,2.274-0.033,4.549,0.001,6.823c0.015,1.004,0.583,1.606,1.6,1.716c0.731,0.079,1.485,0.081,2.215-0.003
		c1.062-0.121,1.572-0.754,1.585-1.829C92.356,27.325,92.346,26.232,92.346,25.139z"/>
	<path fill-rule="evenodd" clip-rule="evenodd" d="M155.945,25.118c0,1.25,0.1,2.511-0.023,3.748c-0.201,2.03-1.2,3.058-3.199,3.459
		c-1.361,0.274-2.739,0.259-4.093-0.067c-1.753-0.421-2.748-1.475-2.877-3.518c-0.151-2.406-0.165-4.837,0.001-7.24
		c0.159-2.269,1.238-3.324,3.497-3.615c1.204-0.155,2.478-0.119,3.676,0.09c2.021,0.354,3.025,1.782,3.089,4.074
		c0.027,1.022,0.004,2.045,0.004,3.068C155.994,25.118,155.969,25.118,155.945,25.118z M153.549,25.141c-0.002,0-0.004,0-0.006,0
		c0-1.128,0.025-2.257-0.006-3.385c-0.031-1.067-0.541-1.636-1.594-1.759c-0.644-0.076-1.305-0.099-1.949-0.04
		c-1.342,0.122-1.859,0.721-1.869,2.071c-0.011,1.393-0.008,2.786-0.001,4.178c0.004,0.846-0.014,1.694,0.054,2.536
		c0.063,0.813,0.496,1.311,1.306,1.442c0.688,0.115,1.402,0.114,2.104,0.103c1.298-0.021,1.938-0.673,1.958-1.972
		C153.563,27.256,153.549,26.198,153.549,25.141z"/>
	<path fill-rule="evenodd" clip-rule="evenodd" d="M158.188,17.76c0.929,0,1.755-0.019,2.578,0.018
		c0.154,0.006,0.349,0.21,0.435,0.371c0.688,1.289,1.354,2.59,2.028,3.886c0.086,0.166,0.184,0.325,0.312,0.554
		c0.124-0.208,0.217-0.35,0.296-0.498c0.674-1.277,1.364-2.545,2.006-3.839c0.197-0.399,0.439-0.522,0.857-0.503
		c0.662,0.03,1.326,0.008,2.092,0.008c-0.138,0.26-0.222,0.427-0.314,0.589c-1.1,1.947-2.191,3.899-3.313,5.833
		c-0.237,0.41-0.265,0.718-0.017,1.147c1.261,2.179,2.482,4.382,3.72,6.575c0.094,0.166,0.181,0.334,0.315,0.584
		c-0.957,0-1.845,0.017-2.73-0.018c-0.126-0.006-0.276-0.236-0.357-0.393c-0.78-1.5-1.547-3.006-2.32-4.51
		c-0.078-0.154-0.165-0.305-0.285-0.525c-0.125,0.213-0.225,0.371-0.313,0.536c-0.812,1.503-1.631,3.002-2.422,4.515
		c-0.162,0.311-0.348,0.421-0.693,0.407c-0.719-0.03-1.438-0.01-2.232-0.01c0.113-0.222,0.193-0.39,0.283-0.552
		c1.221-2.183,2.432-4.371,3.676-6.54c0.225-0.392,0.208-0.67-0.006-1.053c-1.119-1.997-2.207-4.011-3.305-6.02
		C158.395,18.175,158.32,18.019,158.188,17.76z"/>
	<path fill-rule="evenodd" clip-rule="evenodd" d="M111.904,19.921c-0.674,0-1.251,0-1.868,0c0-0.718,0-1.395,0-2.156
		c0.606,0,1.21,0,1.865,0c0-1.221,0-2.36,0-3.529c0.82,0,1.589,0,2.452,0c0,0.43,0,0.861,0,1.292c0,0.582,0.018,1.165-0.008,1.746
		c-0.016,0.367,0.109,0.499,0.481,0.489c0.775-0.022,1.552-0.006,2.327-0.006c0.191,0,0.38,0,0.604,0c0,0.745,0,1.422,0,2.163
		c-0.961,0-1.891,0.024-2.82-0.011c-0.469-0.017-0.6,0.127-0.595,0.594c0.02,2.787,0.007,5.574,0.011,8.36
		c0.002,1.064,0.369,1.426,1.436,1.434c0.646,0.005,1.294,0.001,1.969,0.001c0,0.754,0,1.449,0,2.166
		c-1.105,0-2.185,0.08-3.246-0.02c-1.59-0.151-2.578-1.4-2.594-3.199c-0.027-2.875-0.011-5.751-0.014-8.626
		C111.904,20.413,111.904,20.206,111.904,19.921z"/>
	<path fill-rule="evenodd" clip-rule="evenodd" d="M76.501,17.792c0.755,0,1.487,0,2.24,0c0.02,0.236,0.037,0.44,0.049,0.586
		c0.623-0.198,1.222-0.491,1.846-0.562c0.849-0.096,1.718-0.024,2.649-0.024c0,0.687,0.017,1.353-0.018,2.016
		c-0.005,0.099-0.248,0.26-0.386,0.265c-0.687,0.029-1.375,0.002-2.063,0.019c-1.025,0.024-1.714,0.645-1.861,1.665
		c-0.035,0.243-0.037,0.492-0.037,0.738c-0.002,3.086-0.001,6.173-0.001,9.257c0,0.225,0,0.45,0,0.707c-0.832,0-1.602,0-2.417,0
		C76.501,27.599,76.501,22.727,76.501,17.792z"/>
</g>
<g>
	<path fill-rule="evenodd" clip-rule="evenodd" fill="#5895F9" d="M12.606,44.259c-0.297-0.775-0.703-1.415-0.77-2.089
		c-0.152-1.546,0.34-3.282-2.106-3.628c-0.421-0.061-0.894-1.607-0.9-2.471C8.765,27.035,8.744,18,8.82,8.964
		c0.021-2.521,0.736-3.064,3.234-3.067c11.02-0.011,22.039-0.011,33.059,0c2.532,0.002,3.275,0.738,3.28,3.274
		c0.017,8.889,0.017,17.778,0.001,26.668c-0.004,2.544-0.588,3.11-3.094,3.114c-4.628,0.01-9.271,0.233-13.88-0.063
		c-4.704-0.301-8.927,0.805-13.025,2.951C16.614,42.774,14.677,43.406,12.606,44.259z M20.879,21.745
		c1.538,0,3.078-0.044,4.613,0.014c1.162,0.044,1.785-0.285,1.756-1.587c-0.055-2.562-0.052-5.126,0-7.689
		c0.027-1.272-0.631-1.693-1.744-1.696c-3.002-0.009-6.005-0.002-9.007-0.006c-1.355-0.001-2.013,0.673-2.009,2.024
		c0.005,1.83-0.002,3.662-0.001,5.492c0.001,3.448,0.002,3.448,3.316,3.449C18.829,21.746,19.854,21.746,20.879,21.745z
		 M36.172,21.746c1.462,0,2.932-0.082,4.387,0.022c1.586,0.112,2.066-0.703,2.066-2.078c0-2.268-0.012-4.536,0.005-6.804
		c0.011-1.466-0.699-2.128-2.15-2.111c-1.975,0.024-3.95,0.004-5.925,0.005c-5.496,0.004-4.635-0.354-4.665,4.691
		C29.853,21.746,29.881,21.746,36.172,21.746z M20.848,23.513c-1.394,0-2.794,0.083-4.18-0.023
		c-1.523-0.116-2.167,0.562-2.174,1.993c-0.012,2.201-0.014,4.402,0,6.601c0.008,1.316,0.597,2.016,2.015,1.996
		c3.007-0.043,6.016-0.037,9.022-0.001c1.203,0.014,1.737-0.458,1.715-1.688c-0.044-2.348-0.067-4.697,0.007-7.042
		c0.047-1.495-0.641-1.92-2.004-1.852C23.785,23.569,22.315,23.513,20.848,23.513z M36.033,34.066c1.541,0,3.082-0.042,4.621,0.013
		c1.302,0.047,1.932-0.596,1.954-1.809c0.044-2.347,0.052-4.694-0.007-7.041c-0.03-1.188-0.638-1.781-1.966-1.743
		c-2.931,0.085-5.868,0.077-8.8,0.005c-1.409-0.035-2.014,0.456-1.968,1.898c0.065,2.052,0.149,4.118-0.021,6.157
		c-0.178,2.127,0.702,2.754,2.67,2.545C33.675,33.967,34.86,34.068,36.033,34.066z"/>
	<path fill-rule="evenodd" clip-rule="evenodd" fill="#5895F9" d="M18.901,43.152c4.167-1.988,7.649-3.699,11.932-3.412
		c5.189,0.348,10.42,0.016,15.63,0.115c2.099,0.04,2.869-0.729,2.847-2.82c-0.076-7.195-0.029-14.39-0.029-21.584
		c0-0.789,0-1.578,0-2.331c4.377-0.5,4.851-0.084,4.852,4.024c0,7.634-0.036,15.27,0.026,22.904
		c0.015,1.873-0.496,3.142-2.461,3.412c-0.274,1.471-0.537,2.885-0.866,4.65c-1.383-0.52-2.637-0.856-3.765-1.439
		c-4.745-2.451-9.644-3.884-15.102-3.398c-3.569,0.316-7.189,0.064-10.786,0.054C20.601,43.324,20.023,43.24,18.901,43.152z"/>
</g>
</svg>
